# Blender v2.79 (sub 0) OBJ File: ''
# www.blender.org
o Cube.007_Cube.016
v -0.502820 -0.269973 -0.231362
v -0.000000 -0.597169 0.150438
v -0.502820 0.269973 0.231362
v -0.000000 -0.057222 0.613162
v 0.000000 0.057222 -0.613162
v 0.502820 -0.269973 -0.231362
v 0.000000 0.597169 -0.150438
v 0.502820 0.269973 0.231362
v -0.251410 -0.433571 -0.040462
v -0.251410 0.106375 0.422262
v 0.251410 0.433571 0.040462
v 0.251410 -0.106375 -0.422262
v -0.502820 0.000000 0.000000
v -0.000000 -0.327195 0.381800
v 0.000000 0.327195 -0.381800
v 0.502820 -0.000000 0.000000
v -0.000000 -0.192209 0.497481
v 0.000000 0.462182 -0.266119
v -0.251410 -0.028611 0.306581
v -0.502820 0.134987 0.115681
v 0.502820 0.134987 0.115681
v 0.251410 0.298584 -0.075219
v -0.502820 -0.134987 -0.115681
v 0.502820 -0.134987 -0.115681
v 0.251410 0.028611 -0.306581
v -0.000000 -0.462182 0.266119
v 0.000000 0.192209 -0.497481
v -0.251410 -0.298584 0.075219
v -0.125705 -0.515370 0.054988
v -0.125705 0.024577 0.517712
v 0.377115 0.351772 0.135912
v 0.377115 -0.188174 -0.326812
v 0.377115 0.081799 -0.095450
v -0.125705 -0.245397 0.286350
v 0.377115 0.216785 0.020231
v -0.125705 -0.110410 0.402031
v -0.125705 -0.380383 0.170669
v 0.377115 -0.053188 -0.211131
v -0.377115 0.188174 0.326812
v 0.125705 0.515370 -0.054988
v 0.125705 -0.024577 -0.517712
v -0.377115 -0.351772 -0.135912
v -0.377115 -0.081799 0.095450
v 0.125705 0.245397 -0.286350
v 0.125705 0.380383 -0.170669
v -0.377115 0.053188 0.211131
v -0.377115 -0.216785 -0.020231
v 0.125705 0.110410 -0.402031
v -0.125705 0.515370 -0.054988
v -0.251410 0.433571 0.040462
v -0.377115 0.351772 0.135912
v 0.125705 0.024577 0.517712
v 0.251410 0.106375 0.422262
v 0.377115 0.188174 0.326812
v -0.377115 -0.188174 -0.326812
v -0.251410 -0.106375 -0.422262
v -0.125705 -0.024577 -0.517712
v 0.377115 -0.351772 -0.135912
v 0.251410 -0.433571 -0.040462
v 0.125705 -0.515370 0.054988
v 0.125705 -0.188174 -0.326812
v -0.125705 -0.351772 -0.135912
v -0.125705 0.188174 0.326812
v 0.125705 0.351772 0.135912
v 0.125705 -0.245397 0.286350
v 0.377115 -0.081799 0.095450
v -0.125705 0.245397 -0.286350
v -0.377115 0.081799 -0.095450
v -0.125705 0.380383 -0.170669
v -0.251410 0.298584 -0.075219
v -0.377115 0.216785 0.020231
v 0.125705 -0.110410 0.402031
v 0.251410 -0.028611 0.306581
v 0.377115 0.053188 0.211131
v 0.125705 -0.380383 0.170669
v 0.251410 -0.298584 0.075219
v 0.377115 -0.216785 -0.020231
v -0.125705 0.110410 -0.402031
v -0.251410 0.028611 -0.306581
v -0.377115 -0.053188 -0.211131
v 0.251410 -0.269973 -0.231362
v 0.125705 -0.351772 -0.135912
v -0.000000 -0.433571 -0.040462
v 0.000000 0.106375 0.422262
v 0.125705 0.188174 0.326812
v 0.251410 0.269973 0.231362
v -0.251410 0.269973 0.231362
v -0.125705 0.351772 0.135912
v 0.000000 0.433571 0.040462
v 0.000000 -0.106375 -0.422262
v -0.125705 -0.188174 -0.326812
v -0.251410 -0.269973 -0.231362
v -0.125705 0.053188 0.211131
v -0.000000 -0.028611 0.306581
v -0.251410 0.134987 0.115681
v 0.125705 0.216785 0.020231
v 0.251410 0.134987 0.115681
v 0.125705 -0.053188 -0.211131
v 0.251410 -0.134987 -0.115681
v -0.125705 -0.216785 -0.020231
v -0.000000 -0.298584 0.075219
v -0.251410 -0.134987 -0.115681
v 0.000000 0.163598 -0.190900
v -0.251410 0.000000 0.000000
v -0.125705 -0.053188 -0.211131
v -0.000000 -0.163598 0.190900
v 0.251410 -0.000000 0.000000
v 0.000000 0.028611 -0.306581
v 0.125705 0.053188 0.211131
v -0.125705 0.216785 0.020231
v 0.125705 -0.216785 -0.020231
v 0.000000 0.298584 -0.075219
vn -0.7071 -0.4601 0.5369
vn 0.0000 0.7593 0.6507
vn 0.7071 0.4601 -0.5369
vn -0.0000 -0.7593 -0.6507
vn -0.7071 0.4601 -0.5369
vn 0.7071 -0.4601 0.5369
s off
f 17//1 30//1 36//1
f 54//2 31//2 86//2
f 24//3 32//3 38//3
f 60//4 29//4 83//4
f 27//5 57//5 78//5
f 26//6 60//6 75//6
f 62//4 42//4 92//4
f 25//3 41//3 48//3
f 64//2 40//2 89//2
f 19//1 39//1 46//1
f 17//6 65//6 72//6
f 18//5 67//5 69//5
f 21//3 33//3 35//3
f 26//1 34//1 37//1
f 8//3 35//3 31//3
f 7//5 69//5 49//5
f 4//6 72//6 52//6
f 11//3 45//3 40//3
f 14//1 36//1 34//1
f 2//1 37//1 29//1
f 9//1 47//1 42//1
f 14//6 75//6 65//6
f 15//5 78//5 67//5
f 16//3 38//3 33//3
f 29//1 28//1 9//1
f 31//3 22//3 11//3
f 83//4 9//4 62//4
f 38//3 12//3 25//3
f 86//2 11//2 64//2
f 36//1 10//1 19//1
f 44//3 27//3 15//3
f 42//1 23//1 1//1
f 43//1 20//1 13//1
f 40//3 18//3 7//3
f 45//3 15//3 18//3
f 47//1 13//1 23//1
f 46//1 3//1 20//1
f 89//2 7//2 49//2
f 48//3 5//3 27//3
f 92//4 1//4 55//4
f 41//4 57//4 5//4
f 90//4 56//4 57//4
f 91//4 55//4 56//4
f 39//2 51//2 3//2
f 87//2 50//2 51//2
f 88//2 49//2 50//2
f 30//2 63//2 10//2
f 32//4 61//4 12//4
f 68//5 23//5 13//5
f 66//6 24//6 16//6
f 54//6 21//6 8//6
f 53//6 74//6 54//6
f 52//6 73//6 53//6
f 51//5 20//5 3//5
f 50//5 71//5 51//5
f 49//5 70//5 50//5
f 71//5 13//5 20//5
f 74//6 16//6 21//6
f 10//2 87//2 39//2
f 12//4 90//4 41//4
f 77//6 6//6 24//6
f 76//6 58//6 77//6
f 75//6 59//6 76//6
f 80//5 1//5 23//5
f 79//5 55//5 80//5
f 78//5 56//5 79//5
f 6//4 81//4 32//4
f 58//4 82//4 81//4
f 59//4 83//4 82//4
f 4//2 84//2 30//2
f 52//2 85//2 84//2
f 53//2 86//2 85//2
f 46//4 93//4 19//4
f 19//4 94//4 36//4
f 63//3 95//3 87//3
f 84//3 93//3 63//3
f 89//1 96//1 64//1
f 64//1 97//1 86//1
f 48//2 98//2 25//2
f 25//2 99//2 38//2
f 61//1 108//1 90//1
f 81//1 98//1 61//1
f 22//4 112//4 45//4
f 35//4 96//4 22//4
f 28//2 102//2 47//2
f 37//2 100//2 28//2
f 102//3 62//3 92//3
f 100//3 83//3 62//3
f 68//3 102//3 80//3
f 67//1 112//1 69//1
f 78//1 103//1 67//1
f 71//3 104//3 68//3
f 65//3 94//3 72//3
f 66//1 99//1 77//1
f 77//2 111//2 76//2
f 75//3 106//3 65//3
f 72//4 109//4 73//4
f 74//1 107//1 66//1
f 76//2 101//2 75//2
f 73//4 97//4 74//4
f 99//5 33//5 38//5
f 107//5 35//5 33//5
f 45//6 103//6 44//6
f 44//6 108//6 48//6
f 69//4 110//4 70//4
f 79//2 108//2 78//2
f 70//4 95//4 71//4
f 80//2 105//2 79//2
f 36//5 106//5 34//5
f 34//5 101//5 37//5
f 104//6 46//6 43//6
f 102//6 43//6 47//6
f 91//6 102//6 92//6
f 90//6 105//6 91//6
f 95//6 88//6 87//6
f 110//6 89//6 88//6
f 109//5 84//5 85//5
f 97//5 85//5 86//5
f 82//5 99//5 81//5
f 83//5 111//5 82//5
f 17//1 4//1 30//1
f 54//2 8//2 31//2
f 24//3 6//3 32//3
f 60//4 2//4 29//4
f 27//5 5//5 57//5
f 26//6 2//6 60//6
f 62//4 9//4 42//4
f 25//3 12//3 41//3
f 64//2 11//2 40//2
f 19//1 10//1 39//1
f 17//6 14//6 65//6
f 18//5 15//5 67//5
f 21//3 16//3 33//3
f 26//1 14//1 34//1
f 8//3 21//3 35//3
f 7//5 18//5 69//5
f 4//6 17//6 72//6
f 11//3 22//3 45//3
f 14//1 17//1 36//1
f 2//1 26//1 37//1
f 9//1 28//1 47//1
f 14//6 26//6 75//6
f 15//5 27//5 78//5
f 16//3 24//3 38//3
f 29//1 37//1 28//1
f 31//3 35//3 22//3
f 83//4 29//4 9//4
f 38//3 32//3 12//3
f 86//2 31//2 11//2
f 36//1 30//1 10//1
f 44//3 48//3 27//3
f 42//1 47//1 23//1
f 43//1 46//1 20//1
f 40//3 45//3 18//3
f 45//3 44//3 15//3
f 47//1 43//1 13//1
f 46//1 39//1 3//1
f 89//2 40//2 7//2
f 48//3 41//3 5//3
f 92//4 42//4 1//4
f 41//4 90//4 57//4
f 90//4 91//4 56//4
f 91//4 92//4 55//4
f 39//2 87//2 51//2
f 87//2 88//2 50//2
f 88//2 89//2 49//2
f 30//2 84//2 63//2
f 32//4 81//4 61//4
f 68//5 80//5 23//5
f 66//6 77//6 24//6
f 54//6 74//6 21//6
f 53//6 73//6 74//6
f 52//6 72//6 73//6
f 51//5 71//5 20//5
f 50//5 70//5 71//5
f 49//5 69//5 70//5
f 71//5 68//5 13//5
f 74//6 66//6 16//6
f 10//2 63//2 87//2
f 12//4 61//4 90//4
f 77//6 58//6 6//6
f 76//6 59//6 58//6
f 75//6 60//6 59//6
f 80//5 55//5 1//5
f 79//5 56//5 55//5
f 78//5 57//5 56//5
f 6//4 58//4 81//4
f 58//4 59//4 82//4
f 59//4 60//4 83//4
f 4//2 52//2 84//2
f 52//2 53//2 85//2
f 53//2 54//2 86//2
f 46//4 95//4 93//4
f 19//4 93//4 94//4
f 63//3 93//3 95//3
f 84//3 94//3 93//3
f 89//1 112//1 96//1
f 64//1 96//1 97//1
f 48//2 108//2 98//2
f 25//2 98//2 99//2
f 61//1 98//1 108//1
f 81//1 99//1 98//1
f 22//4 96//4 112//4
f 35//4 97//4 96//4
f 28//2 100//2 102//2
f 37//2 101//2 100//2
f 102//3 100//3 62//3
f 100//3 101//3 83//3
f 68//3 104//3 102//3
f 67//1 103//1 112//1
f 78//1 108//1 103//1
f 71//3 95//3 104//3
f 65//3 106//3 94//3
f 66//1 107//1 99//1
f 77//2 99//2 111//2
f 75//3 101//3 106//3
f 72//4 94//4 109//4
f 74//1 97//1 107//1
f 76//2 111//2 101//2
f 73//4 109//4 97//4
f 99//5 107//5 33//5
f 107//5 97//5 35//5
f 45//6 112//6 103//6
f 44//6 103//6 108//6
f 69//4 112//4 110//4
f 79//2 105//2 108//2
f 70//4 110//4 95//4
f 80//2 102//2 105//2
f 36//5 94//5 106//5
f 34//5 106//5 101//5
f 104//6 95//6 46//6
f 102//6 104//6 43//6
f 91//6 105//6 102//6
f 90//6 108//6 105//6
f 95//6 110//6 88//6
f 110//6 112//6 89//6
f 109//5 94//5 84//5
f 97//5 109//5 85//5
f 82//5 111//5 99//5
f 83//5 101//5 111//5
